<svg xmlns="http://www.w3.org/2000/svg" width="11.875em" height="3.5em" id="Laag_1" data-name="Laag 1" viewBox="0 0 226.41 48.56"><defs><style>      .cls-1 {        fill: #1e4e9e;      }      .cls-2 {        fill: #7fbc47;      }    </style></defs><circle class="cls-2" cx="161.92" cy="4.67" r="4.67"></circle><path class="cls-1" d="m20.62,36.41c-1.43.66-4.09,1.19-7.11,1.19-8.25,0-13.51-5.05-13.51-13.07,0-7.47,5.11-13.57,14.6-13.57,2.1,0,4.4.38,6.06,1.01l-1.24,5.9c-.96-.43-2.35-.81-4.44-.81-4.2,0-6.89,2.98-6.86,7.16,0,4.69,3.15,7.18,6.99,7.18,1.9,0,3.35-.33,4.57-.83l.94,5.86Z"></path><path class="cls-1" d="m52.22,24.03c0,9.33-6.61,13.6-13.46,13.6-7.43,0-13.19-4.91-13.19-13.16s5.44-13.53,13.65-13.53,13,5.38,13,13.09Zm-18.47.26c0,4.36,1.84,7.67,5.23,7.67,3.1,0,5.06-3.1,5.06-7.71,0-3.77-1.45-7.64-5.05-7.64-3.79,0-5.23,3.89-5.23,7.68Z"></path><path class="cls-1" d="m59.75,19.67c0-3.18-.1-5.87-.21-8.16h6.71l.34,3.46h.17c1.08-1.62,3.36-4.03,7.71-4.03,3.32,0,5.89,1.69,6.99,4.38h.1c.95-1.35,2.08-2.39,3.32-3.11,1.38-.83,2.94-1.26,4.85-1.26,4.88,0,8.6,3.45,8.6,11.08v15.03h-7.73v-13.87c0-3.7-1.19-5.85-3.76-5.85-1.84,0-3.12,1.25-3.65,2.77-.19.57-.29,1.38-.29,2.02v14.94h-7.73v-14.32c0-3.22-1.15-5.4-3.68-5.4-2.04,0-3.25,1.56-3.72,2.85-.23.62-.3,1.35-.3,2.01v14.86h-7.73v-17.38Z"></path><path class="cls-1" d="m107.23,20.09c0-3.36-.1-6.19-.21-8.58h6.9l.37,3.58h.1c1.89-2.7,4.8-4.15,8.51-4.15,5.59,0,10.61,4.86,10.61,13.01,0,9.31-5.93,13.68-11.62,13.68-3.05,0-5.49-1.23-6.62-2.91h-.1v12.67h-7.94v-27.29Zm7.94,6.03c0,.6.05,1.15.16,1.66.51,2.13,2.35,3.77,4.64,3.77,3.43,0,5.48-2.89,5.48-7.22,0-4.06-1.82-7.16-5.35-7.16-2.25,0-4.27,1.7-4.75,4.02-.12.45-.18.94-.18,1.42v3.53Z"></path><path class="cls-1" d="m141.05,0h7.95v37.05h-7.95V0Z"></path><path class="cls-1" d="m161.92,8.39-3.91,28.67V11.51h7.95v25.54h-7.95Z"></path><path class="cls-1" d="m172.88,32.49l8.05-10.06c1.45-1.7,2.6-2.98,4.04-4.52v-.12h-11.2v-6.3h20.9v4.78s-7.71,9.67-7.71,9.67c-1.39,1.65-2.72,3.25-4.17,4.68v.11h12.27v6.3h-22.19v-4.56Z"></path><path class="cls-1" d="m208.4,11.51l3.82,12.56c.43,1.5.93,3.41,1.27,4.74h.17c.35-1.38.76-3.27,1.13-4.76l3.15-12.54h8.47l-5.92,16.81c-3.66,10.14-6.11,14.19-8.99,16.75-2.73,2.4-5.66,3.28-7.65,3.49l-1.7-6.69c1.01-.19,2.24-.65,3.45-1.35,1.21-.64,2.53-1.91,3.27-3.18.27-.4.44-.8.44-1.14,0-.3-.07-.68-.35-1.31l-9.36-23.37h8.79Z"></path></svg>